<svg xmlns="http://www.w3.org/2000/svg" width="59.997" height="60" viewBox="0 0 59.997 60">
  <g id="blockchain" transform="translate(-0.5 -0.002)">
    <path id="Path_2698" data-name="Path 2698" d="M188.893,189.825a.892.892,0,0,0,.916-.011l8.051-5.049a.881.881,0,0,0,.413-.747v-8.332a.869.869,0,0,0,.011-.13.882.882,0,0,0-.414-.747l-8.061-5.037a.882.882,0,0,0-.934,0l-8.061,5.037a.9.9,0,0,0-.414.749v8.46a.882.882,0,0,0,.414.747l8.061,5.049Zm1.329-2.351v-6.392l6.288-3.929v6.377Zm-.882-15.915,6.393,3.995-6.393,4-6.4-4Zm-7.179,5.588,6.3,3.935v6.393l-6.3-3.944Zm0,0" transform="translate(-158.843 -149.787)" fill="#e50707"/>
    <path id="Path_2699" data-name="Path 2699" d="M.914,15.136l8.061,5.049a.9.9,0,0,0,.936,0l8.051-5.049a.881.881,0,0,0,.413-.747V6.055a.858.858,0,0,0,.011-.129.881.881,0,0,0-.414-.747L9.91.142a.882.882,0,0,0-.934,1.495l6.86,4.287-6.393,4-6.4-4L6.021,4.067a.882.882,0,0,0-.934-1.5L.914,5.179A.894.894,0,0,0,.5,5.926v8.462a.881.881,0,0,0,.414.747ZM2.263,7.516,2.4,7.6l6.158,3.848v6.393L2.263,13.9Zm8.061,10.327V11.452l6.288-3.929V13.9Zm0,0" transform="translate(0 0)" fill="#e50707"/>
    <path id="Path_2700" data-name="Path 2700" d="M360.71,15.184l8.061,5.049a.9.9,0,0,0,.936,0l8.051-5.049a.881.881,0,0,0,.413-.747V6.1a.873.873,0,0,0,.011-.13.882.882,0,0,0-.414-.747L369.706.19a.882.882,0,0,0-.934,0l-8.061,5.037a.894.894,0,0,0-.415.747v8.462a.882.882,0,0,0,.414.747Zm1.349-7.619,6.3,3.936v6.393l-6.3-3.944Zm8.061,10.327V11.5l6.288-3.929v6.378Zm-.881-15.915,6.393,3.995-6.394,4-6.4-4Zm0,0" transform="translate(-317.685 -0.048)" fill="#e50707"/>
    <path id="Path_2701" data-name="Path 2701" d="M17.972,344.391,9.91,339.354a.882.882,0,0,0-.934,0L.915,344.391a.894.894,0,0,0-.414.747V353.6a.881.881,0,0,0,.414.747L8.976,359.4a.9.9,0,0,0,.936,0l8.051-5.049a.882.882,0,0,0,.413-.747v-8.333a.922.922,0,0,0,.01-.129.882.882,0,0,0-.414-.747Zm-8.529-3.25,6.393,3.995-6.393,4-6.4-4Zm-7.18,5.588.14.088,6.158,3.848v6.393l-6.3-3.945Zm8.061,10.328v-6.392l6.288-3.929v6.378Zm0,0" transform="translate(0 -299.526)" fill="#e50707"/>
    <path id="Path_2702" data-name="Path 2702" d="M377.768,344.391l-8.061-5.037a.882.882,0,0,0-.934,0l-8.061,5.037a.894.894,0,0,0-.414.747V353.6a.882.882,0,0,0,.414.747l8.061,5.049a.888.888,0,0,0,1.349-.747v-7.985l6.288-3.929v6.377l-3.4,2.13a.881.881,0,0,0,.937,1.493l3.809-2.389a.882.882,0,0,0,.413-.747v-8.332a.87.87,0,0,0,.011-.13.882.882,0,0,0-.414-.747Zm-8.528-3.25,6.393,3.995-6.394,4-6.4-4Zm-7.18,5.588,6.3,3.936v6.393l-6.3-3.945Zm0,0" transform="translate(-317.685 -299.526)" fill="#e50707"/>
    <path id="Path_2703" data-name="Path 2703" d="M182.833,76.813h15.749a.882.882,0,0,0,0-1.763H182.833A.882.882,0,0,0,182.833,76.813Zm0,0" transform="translate(-160.238 -66.228)" fill="#e50707"/>
    <path id="Path_2704" data-name="Path 2704" d="M199.083,422.027H183.334a.882.882,0,0,0,0,1.763h15.749A.882.882,0,0,0,199.083,422.027Zm0,0" transform="translate(-160.681 -372.6)" fill="#e50707"/>
    <path id="Path_2705" data-name="Path 2705" d="M428.473,204.768v10.508a.881.881,0,0,0,1.763,0V204.768A.882.882,0,0,0,428.473,204.768Zm0,0" transform="translate(-377.848 -180.035)" fill="#e50707"/>
    <path id="Path_2706" data-name="Path 2706" d="M69.492,205.1v10.508a.882.882,0,0,0,1.763,0V205.1A.882.882,0,0,0,69.492,205.1Zm0,0" transform="translate(-60.883 -180.328)" fill="#e50707"/>
    <path id="Path_2707" data-name="Path 2707" d="M330.031,154.963l-3.972,2.628a.888.888,0,0,0,.487,1.617.876.876,0,0,0,.485-.146L331,156.433A.882.882,0,0,0,330.031,154.963Zm0,0" transform="translate(-287.079 -136.671)" fill="#e50707"/>
    <path id="Path_2708" data-name="Path 2708" d="M143.014,159.062a.875.875,0,0,0,.485.146.888.888,0,0,0,.487-1.617l-3.972-2.628a.882.882,0,0,0-.972,1.47Zm0,0" transform="translate(-121.969 -136.672)" fill="#e50707"/>
    <path id="Path_2709" data-name="Path 2709" d="M139.559,329.2a.876.876,0,0,0,.485-.146l3.972-2.628a.882.882,0,0,0-.972-1.471l-3.972,2.628A.888.888,0,0,0,139.559,329.2Zm0,0" transform="translate(-121.999 -286.744)" fill="#e50707"/>
    <path id="Path_2710" data-name="Path 2710" d="M326.028,326.421,330,329.049a.875.875,0,0,0,.485.146.888.888,0,0,0,.487-1.617L327,324.951A.882.882,0,0,0,326.028,326.421Zm0,0" transform="translate(-287.049 -286.743)" fill="#e50707"/>
  </g>
</svg>
