<svg xmlns="http://www.w3.org/2000/svg" width="60" height="60" viewBox="0 0 60 60">
  <g id="coding_1_" data-name="coding (1)" transform="translate(-1 -1)">
    <path id="Path_3436" data-name="Path 3436" d="M53.258,43.586V39.71a4.845,4.845,0,0,0-4.839-4.839H40.273a27.277,27.277,0,0,0,2.156-5.194l3.677-2.943a3.575,3.575,0,0,0-2.117-6.367l2.156-5.928A10.016,10.016,0,0,0,36.733,1H28.517A32.773,32.773,0,0,0,11.132,5.986a.968.968,0,0,0,.207,1.742l2.333.774a2.485,2.485,0,0,1,1.521,3.28,4.421,4.421,0,0,0,.15,3.618l2.495,4.985A3.57,3.57,0,0,0,15.9,26.734l3.677,2.943a27.278,27.278,0,0,0,2.154,5.194H13.581A4.845,4.845,0,0,0,8.742,39.71v3.877A12.6,12.6,0,0,0,1,55.194v4.839A.968.968,0,0,0,1.968,61H60.032A.968.968,0,0,0,61,60.032V55.194a12.6,12.6,0,0,0-7.742-11.607ZM38.742,20.355H32.935a.968.968,0,0,0-.968.968v.968H30.032v-.968a.968.968,0,0,0-.968-.968h-8.71V18.937L26.4,14.91a7.892,7.892,0,0,1,4.392-1.33,9.883,9.883,0,0,0,6.154-2.159l1.581-1.265,1.66,2.491a8.68,8.68,0,0,1,1.463,4.831v2.876Zm-.968,1.935v2.9a.968.968,0,0,1-.968.968H34.871a.968.968,0,0,1-.968-.968v-2.9Zm-9.677,0v2.9a.968.968,0,0,1-.968.968H25.194a.968.968,0,0,1-.968-.968v-2.9Zm17.419,1.645a1.639,1.639,0,0,1-.617,1.285l-1.755,1.4a27.234,27.234,0,0,0,.421-4.334h.306A1.645,1.645,0,0,1,45.516,23.935ZM16.99,12.5a4.421,4.421,0,0,0-2.7-5.835l-.3-.1A30.835,30.835,0,0,1,28.517,2.935h8.216a8.081,8.081,0,0,1,7.594,10.839l-.841,2.313a10.612,10.612,0,0,0-1.694-4.517L39.547,8.2a.969.969,0,0,0-1.41-.219l-2.4,1.929a7.95,7.95,0,0,1-4.945,1.734A9.825,9.825,0,0,0,25.321,13.3L18.85,17.614a.96.96,0,0,0-.165.141l-1.61-3.222A2.484,2.484,0,0,1,16.99,12.5ZM17.1,25.223a1.645,1.645,0,0,1,1.027-2.932h.3a27.234,27.234,0,0,0,.421,4.335ZM20.37,22.29h1.92v2.9a2.9,2.9,0,0,0,2.9,2.9h1.935a2.9,2.9,0,0,0,2.9-2.9v-.968h1.935v.968a2.9,2.9,0,0,0,2.9,2.9h1.935a2.9,2.9,0,0,0,2.9-2.9v-2.9h1.92a25.338,25.338,0,0,1-3.591,12.581H23.962A25.338,25.338,0,0,1,20.37,22.29Zm-6.79,14.516H48.419a2.9,2.9,0,0,1,2.9,2.9V59.065H10.677V39.71a2.9,2.9,0,0,1,2.9-2.9ZM2.935,55.194a10.661,10.661,0,0,1,5.806-9.477V59.065H2.935Zm56.129,3.871H53.258V45.716a10.662,10.662,0,0,1,5.806,9.477Z" fill="#eb3434"/>
    <path id="Path_3437" data-name="Path 3437" d="M31.871,57.742A3.871,3.871,0,1,0,28,53.871,3.871,3.871,0,0,0,31.871,57.742Zm0-5.806a1.935,1.935,0,1,1-1.935,1.935A1.935,1.935,0,0,1,31.871,51.935Z" transform="translate(-0.871 -1.581)" fill="#eb3434"/>
    <path id="Path_3438" data-name="Path 3438" d="M25.155,48.4l1.368-1.368-3.187-3.187,3.187-3.187-1.368-1.368-3.871,3.871a.968.968,0,0,0,0,1.368Z" transform="translate(-0.645 -1.235)" fill="#eb3434"/>
    <path id="Path_3439" data-name="Path 3439" d="M38.661,48.4l3.871-3.871a.968.968,0,0,0,0-1.368l-3.871-3.871-1.368,1.368,3.187,3.187-3.187,3.187Z" transform="translate(-1.171 -1.235)" fill="#eb3434"/>
    <rect id="Rectangle_3936" data-name="Rectangle 3936" width="9.677" height="1.935" transform="matrix(0.6, -0.8, 0.8, 0.6, 27.322, 45.902)" fill="#eb3434"/>
  </g>
</svg>
