<svg version="1.1" id="Layer_1" xmlns="http://www.w3.org/2000/svg" xmlns:xlink="http://www.w3.org/1999/xlink" x="0px" y="0px"
	 width="100%" viewBox="0 0 1024 1024" enable-background="new 0 0 1024 1024" xml:space="preserve">
<path fill="#000000" opacity="1.000000" stroke="none" 
	d="
M754.355347,829.984131 
	C758.353821,845.029419 753.644653,859.539551 742.466370,867.336121 
	C729.837341,876.144592 714.789001,876.700745 703.160400,868.788879 
	C690.800232,860.379395 685.023254,845.825989 688.745544,831.689758 
	C691.333008,821.863770 697.067871,814.244629 706.339417,809.825684 
	C709.893372,808.131836 711.184998,805.982971 711.089050,802.123291 
	C710.865601,793.129395 710.954773,784.124512 711.091064,775.126709 
	C711.142578,771.729614 710.103271,769.095215 707.671326,766.674133 
	C685.232117,744.335571 662.820984,721.968079 640.541565,699.470398 
	C637.862122,696.764648 635.783081,696.678528 632.811035,698.654663 
	C618.590149,708.109924 603.318481,715.497559 587.249268,721.219666 
	C584.241943,722.290527 583.209595,724.025024 583.217834,727.152588 
	C583.300964,758.651428 583.291016,790.150574 583.232788,821.649475 
	C583.227783,824.341003 584.001099,826.397949 585.940735,828.294067 
	C592.971619,835.167358 599.947998,842.099426 606.804993,849.145508 
	C608.711670,851.104675 610.353638,851.399902 612.943848,850.469177 
	C632.286194,843.519714 652.521301,853.628174 657.834595,872.739685 
	C663.227722,892.138306 651.601318,911.602295 631.791443,915.661194 
	C619.232727,918.234436 608.188538,914.581604 599.682800,905.004944 
	C591.088196,895.328308 588.466370,883.904541 592.722473,871.501831 
	C593.989990,867.808289 593.668701,865.579834 590.812988,862.853271 
	C582.260254,854.687378 574.096130,846.116028 565.631409,837.855469 
	C562.923828,835.213318 561.812378,832.374756 561.827332,828.577148 
	C561.947205,798.078857 561.893921,767.579895 561.906250,737.081177 
	C561.909607,728.903748 561.939087,728.961426 554.119812,730.264587 
	C545.750366,731.659424 537.391357,733.231873 528.876038,733.406189 
	C524.716858,733.491455 523.208252,735.200134 523.222717,739.534058 
	C523.366211,782.365662 523.352295,825.198059 523.232361,868.029785 
	C523.221985,871.732361 524.497253,873.643982 527.766663,875.294556 
	C542.764587,882.866272 549.845276,898.726685 545.670227,914.705383 
	C541.762085,929.662659 527.271484,940.538635 511.887482,940.061035 
	C495.620972,939.556091 482.176941,927.934998 479.015472,911.646179 
	C476.246704,897.380615 483.648987,882.342834 497.313049,875.416138 
	C500.819885,873.638489 502.017761,871.636719 502.006805,867.764282 
	C501.886566,825.266602 501.871826,782.768127 502.063751,740.270935 
	C502.086639,735.197388 500.194397,733.490540 495.462555,733.341003 
	C486.626099,733.061768 477.933014,731.482239 469.272186,729.800659 
	C463.857880,728.749329 463.324890,729.121033 463.321991,734.863892 
	C463.306274,766.029663 463.245667,797.195740 463.385529,828.360840 
	C463.404114,832.503601 462.347107,835.587341 459.304962,838.499939 
	C451.000580,846.450806 443.057312,854.777893 434.800476,862.779968 
	C432.122223,865.375671 431.442017,867.529724 432.638824,871.416443 
	C436.934387,885.366516 434.051788,897.974243 422.923218,907.758728 
	C412.188049,917.197388 399.667419,919.069824 386.581940,913.336853 
	C373.407654,907.565002 366.626404,896.702209 366.155487,882.625854 
	C365.379822,859.439453 388.900848,842.442566 411.061005,849.895386 
	C414.786072,851.148071 417.065338,850.824646 419.751007,847.950317 
	C425.777679,841.500122 432.085114,835.302979 438.455719,829.187744 
	C441.065674,826.682312 442.133728,823.966553 442.119812,820.360718 
	C442.023285,795.361816 442.081635,770.362305 442.087250,745.363037 
	C442.088623,739.373047 441.991913,733.381348 442.108795,727.393738 
	C442.171967,724.155396 441.089294,722.215820 437.826233,721.064575 
	C418.055664,714.088867 399.719971,704.326416 382.798431,691.959839 
	C380.509796,690.287231 379.080505,690.682129 377.268219,692.501343 
	C354.685242,715.170898 332.065948,737.804260 309.431244,760.422180 
	C307.928009,761.924316 307.123779,763.562256 307.133789,765.721802 
	C307.181732,776.054443 307.256348,786.388916 307.100800,796.719421 
	C307.053162,799.884888 308.866852,800.929504 311.237549,802.136780 
	C324.806946,809.046814 332.059235,822.792053 330.146027,837.663269 
	C328.350250,851.621887 317.374268,863.264709 303.108154,866.343811 
	C286.735474,869.877563 270.350037,860.741272 264.296295,844.702881 
	C258.435883,829.176819 264.687378,811.019958 279.360443,803.451660 
	C284.593933,800.752258 285.977081,797.630493 285.794800,792.218872 
	C285.430359,781.397949 285.817535,770.553772 285.606964,759.724731 
	C285.532776,755.908875 286.753540,753.180359 289.449280,750.506042 
	C312.755768,727.385620 335.946350,704.148376 359.155792,680.930298 
	C360.538513,679.547119 361.786255,678.028992 363.388550,676.249695 
	C355.929993,669.111755 349.036621,661.980530 341.113342,652.931946 
	C338.591003,656.173218 336.710510,659.177246 334.274170,661.628967 
	C311.837494,684.206970 289.275085,706.660034 266.843750,729.243347 
	C264.513885,731.588928 262.076019,732.411987 258.867188,732.376587 
	C247.035629,732.246033 235.199036,732.471008 223.370239,732.248352 
	C219.524521,732.176086 217.506622,733.366699 215.716660,736.926941 
	C203.696075,760.835754 171.246689,762.646179 156.652390,740.377014 
	C146.041382,724.185852 151.090317,702.304382 167.699310,692.501465 
	C184.566971,682.545898 206.487289,688.550415 215.392868,705.911133 
	C217.358887,709.743774 219.474747,711.233276 223.764969,711.075439 
	C232.752640,710.744751 241.762100,710.884338 250.759842,711.018005 
	C253.805664,711.063110 256.106720,710.197144 258.293640,708.000854 
	C280.636292,685.562927 303.010681,663.155701 325.530914,640.896423 
	C328.486053,637.975464 328.728058,635.800232 326.493744,632.377197 
	C317.537109,618.655273 310.202545,604.079468 304.813080,588.589783 
	C303.482025,584.764282 301.619202,583.117432 297.288849,583.144409 
	C266.291168,583.337097 235.291641,583.287903 204.293091,583.191223 
	C201.026138,583.181030 198.626602,584.160706 196.373795,586.491455 
	C190.004166,593.081360 183.535080,599.580688 176.938583,605.942993 
	C174.583664,608.214294 174.140182,610.268616 175.185593,613.434998 
	C182.294586,634.967102 169.619965,655.479126 147.204987,659.025024 
	C130.229599,661.710327 112.015724,647.564331 109.520828,630.643494 
	C105.524857,603.542175 131.331223,584.042847 154.997437,593.013306 
	C158.040787,594.166870 159.954956,593.359314 162.044800,591.239075 
	C170.350525,582.812744 178.874741,574.599060 187.078232,566.075867 
	C189.976547,563.064636 193.033447,561.828186 197.188507,561.844543 
	C228.187119,561.966858 259.186432,561.916260 290.185547,561.890930 
	C292.129089,561.889343 294.170654,562.289612 296.152527,561.077087 
	C294.834412,551.985840 293.527039,542.964966 292.218475,533.944214 
	C290.674805,523.302734 290.674347,523.298157 279.633179,523.298584 
	C239.134674,523.299988 198.636078,523.343872 158.137817,523.244995 
	C154.277817,523.235596 151.932648,523.993103 150.033279,527.928406 
	C143.002487,542.495300 127.230492,549.626404 111.574150,545.916992 
	C96.776184,542.410950 85.851318,529.078430 85.654839,514.285400 
	C85.430344,497.382416 95.323875,483.617462 110.439957,479.801666 
	C126.513176,475.744232 142.369049,482.400726 149.781601,496.933105 
	C151.788498,500.867615 154.025711,502.028381 158.197617,502.016113 
	C200.695755,501.891266 243.194595,501.897705 285.692719,502.030670 
	C290.078491,502.044403 291.590210,500.891418 291.975891,496.222595 
	C292.862244,485.494141 294.654541,474.840576 296.073425,464.199371 
	C294.325836,462.806488 292.421265,463.381989 290.662384,463.379700 
	C259.496735,463.339081 228.330780,463.285706 197.165665,463.419037 
	C193.040680,463.436707 189.958420,462.414673 187.031906,459.359375 
	C178.850143,450.817596 170.256516,442.671112 162.034653,434.166382 
	C159.690216,431.741302 157.727539,431.494904 154.604630,432.556610 
	C132.197052,440.174774 109.251717,424.149292 108.860985,400.780701 
	C108.565269,383.094879 121.705597,368.806610 140.613693,366.253998 
	C155.785721,364.205719 172.064743,375.864929 176.206253,391.729980 
	C178.029419,398.714111 177.768555,405.633240 175.163101,412.337860 
	C174.092148,415.093750 174.548950,416.946899 176.630295,418.970367 
	C183.440842,425.591553 190.151825,432.317993 196.783951,439.118225 
	C198.796127,441.181396 200.970627,442.098053 203.848862,442.092133 
	C235.347870,442.027161 266.847168,442.000488 298.346039,442.088959 
	C301.762085,442.098572 303.380249,440.763031 304.472351,437.623840 
	C311.085144,418.615540 320.348938,400.941742 332.153290,384.660736 
	C334.753326,381.074677 334.467621,378.874420 331.394562,375.833313 
	C309.479675,354.146545 287.691650,332.331085 265.946686,310.473633 
	C263.522675,308.037048 260.975281,306.994751 257.547821,307.060760 
	C248.384750,307.237274 239.214767,307.216431 230.050430,307.079926 
	C226.687729,307.029846 224.676147,308.014038 223.062180,311.273163 
	C215.497025,326.549652 198.489182,333.876953 182.727814,328.995453 
	C166.313705,323.911774 156.580017,308.453003 158.770996,290.947906 
	C160.702850,275.513184 174.808701,262.874847 191.114166,261.969635 
	C204.317963,261.236603 217.573181,269.163818 223.331070,281.632904 
	C224.737534,284.678680 226.396637,285.809479 229.721725,285.760040 
	C241.552094,285.584106 253.389877,285.852417 265.218079,285.614777 
	C269.393677,285.530884 272.384766,286.798401 275.327393,289.766724 
	C298.324188,312.964294 321.532562,335.952271 344.498383,359.180176 
	C347.802368,362.521881 349.977264,363.163269 353.186371,359.289307 
	C358.367188,353.035095 363.893555,347.067139 369.660858,341.341766 
	C369.896484,340.114502 368.266754,339.092163 367.002655,337.825165 
	C343.813782,314.583679 320.646454,291.320282 297.340027,268.197052 
	C294.151794,265.033875 292.626648,261.814117 292.750275,257.241516 
	C293.047333,246.249802 292.666534,235.240097 292.942627,224.247284 
	C293.052399,219.877579 291.774506,217.443222 287.693787,215.340271 
	C273.816895,208.189011 266.782562,192.469086 270.317841,177.846481 
	C274.146820,162.009125 286.928497,151.404526 302.791504,150.904037 
	C317.964661,150.425308 331.711304,160.667145 336.347076,175.904343 
	C340.677399,190.137451 334.910156,206.442551 321.516205,213.924988 
	C315.341949,217.374222 313.706055,221.252716 314.136108,227.711365 
	C314.655396,235.510132 314.325775,243.370132 314.234009,251.202118 
	C314.204590,253.714600 314.983368,255.650665 316.763397,257.426025 
	C339.768829,280.371277 362.759064,303.331970 385.671082,326.370361 
	C387.878815,328.590271 389.586121,328.637817 392.117035,326.958130 
	C406.627991,317.327667 422.273407,309.942810 438.590576,303.940979 
	C440.727631,303.154907 442.313965,302.398682 442.299438,299.484924 
	C442.142517,267.988342 442.098755,236.490952 442.141022,204.993942 
	C442.145844,201.410294 441.164185,198.642044 438.545868,196.131012 
	C432.172241,190.018585 425.883026,183.807770 419.796814,177.411087 
	C417.278809,174.764603 415.051666,174.223877 411.479065,175.371216 
	C389.158325,182.539551 367.359131,167.414459 366.147675,144.147888 
	C365.351501,128.857498 377.032074,113.654633 392.388916,109.993500 
	C408.079620,106.252762 424.600830,114.112038 431.195709,128.430023 
	C435.148193,137.011154 435.620636,145.837326 432.496399,154.674713 
	C431.359955,157.889389 432.009430,159.877701 434.294403,162.124069 
	C442.849274,170.534302 451.167603,179.186340 459.776031,187.540131 
	C462.399353,190.085815 463.389984,192.729828 463.377289,196.338196 
	C463.267426,227.503571 463.311615,258.669495 463.334564,289.835266 
	C463.335999,291.793976 463.017487,293.817627 464.109497,296.194427 
	C470.304199,295.260376 476.493500,294.275513 482.699341,293.408875 
	C487.148590,292.787506 491.620728,291.899017 496.081177,291.907654 
	C500.752289,291.916687 502.055267,290.065521 502.024323,285.630035 
	C501.868439,263.299194 501.965668,240.966599 501.960815,218.634628 
	C501.956482,198.635208 501.836761,178.634995 501.999359,158.637009 
	C502.034058,154.370911 501.014954,151.882980 496.852112,149.739868 
	C482.338440,142.267975 475.666473,126.123711 479.893738,110.327988 
	C483.948730,95.176025 497.295990,85.510399 513.949951,85.665665 
	C528.925720,85.805283 542.292542,96.533096 545.811218,111.236702 
	C549.587158,127.014839 542.708435,142.604309 528.248291,149.959763 
	C524.611450,151.809708 523.211548,153.792496 523.225708,157.907547 
	C523.372437,200.572479 523.366150,243.238266 523.231750,285.903290 
	C523.218567,290.091309 524.195923,291.747345 528.710999,291.879303 
	C539.516724,292.195068 550.109680,294.577972 560.684631,296.296295 
	C562.547607,294.246948 561.857605,291.976288 561.860779,289.916046 
	C561.907532,259.083832 561.960938,228.251160 561.807129,197.419617 
	C561.785339,193.054306 563.109009,189.880737 566.232056,186.880325 
	C574.402466,179.030609 582.227234,170.821640 590.375122,162.947647 
	C593.212708,160.205429 594.044006,157.771698 592.717102,153.768936 
	C588.183960,140.094696 591.472473,127.909096 601.894470,118.212410 
	C612.176392,108.646065 624.432190,106.326637 637.588806,111.615685 
	C650.932373,116.979919 658.079895,127.358116 659.170410,141.488953 
	C660.888184,163.748672 638.417114,182.359879 617.042297,176.148331 
	C610.862061,174.352371 606.969604,175.154190 602.832947,179.937531 
	C597.722107,185.847351 591.927856,191.175827 586.307617,196.630524 
	C584.108826,198.764526 583.226257,201.110733 583.233032,204.169144 
	C583.302246,235.501465 583.322693,266.834198 583.190735,298.166168 
	C583.176208,301.620178 584.451416,303.224091 587.556213,304.337036 
	C607.123291,311.351044 625.404297,320.870972 642.173645,333.171326 
	C645.566406,335.659882 647.282227,333.551270 649.303589,331.527985 
	C666.734741,314.080200 684.164673,296.631165 701.589722,279.177307 
	C706.298950,274.460358 710.903076,269.633911 715.730408,265.041656 
	C717.839478,263.035278 718.727539,260.897461 718.690796,258.007355 
	C718.572144,248.675842 718.522400,239.338974 718.723572,230.010162 
	C718.798828,226.522919 717.638611,224.715469 714.381165,223.210403 
	C701.954102,217.468628 693.797729,203.488586 695.074402,190.876556 
	C696.698730,174.830948 705.741089,163.581985 720.235535,159.575653 
	C737.022888,154.935547 754.500061,163.779648 760.914978,180.160904 
	C767.277466,196.408173 760.413696,215.074646 744.883240,222.716919 
	C741.155518,224.551285 739.800720,226.674698 739.882324,230.738174 
	C740.113281,242.233093 739.839233,253.737625 740.016785,265.234436 
	C740.077942,269.194489 738.864563,272.104584 736.021606,274.925079 
	C712.715149,298.048126 689.544495,321.308105 666.338989,344.532867 
	C665.052490,345.820465 663.822510,347.164520 661.819031,349.265991 
	C669.553101,355.797638 677.127808,362.194672 685.272522,369.073120 
	C688.336731,366.099976 693.255493,361.451691 698.036987,356.666351 
	C718.177734,336.509491 738.300354,316.334381 758.360657,296.097656 
	C760.642395,293.795898 763.075684,292.776489 766.323486,292.811401 
	C778.155090,292.938538 789.990967,292.735840 801.820862,292.926544 
	C805.777588,292.990356 808.020203,291.830750 809.920593,288.062134 
	C816.927002,274.167664 831.979431,267.014923 846.681946,270.032562 
	C861.935852,273.163391 873.382568,285.985901 874.281372,300.949219 
	C875.229492,316.733063 866.127686,330.538177 851.244934,335.889679 
	C835.533569,341.539154 817.809753,334.600494 810.091553,319.320343 
	C808.135925,315.448669 805.943359,314.013000 801.692017,314.158417 
	C792.869080,314.460175 784.027161,314.355133 775.196594,314.206238 
	C771.972107,314.151886 769.538635,315.062744 767.224426,317.391876 
	C744.671509,340.090332 722.067871,362.739105 699.347961,385.270203 
	C696.788696,387.808197 696.777588,389.580658 698.650696,392.482605 
	C707.804260,406.663391 715.493469,421.615814 720.918945,437.629364 
	C722.118042,441.168762 724.102234,442.141785 727.543091,442.131226 
	C758.708557,442.035706 789.874451,442.015503 821.039978,442.077332 
	C824.313293,442.083832 826.712097,440.964874 828.951050,438.662079 
	C835.340149,432.091095 841.801819,425.585602 848.403625,419.229614 
	C850.732483,416.987457 851.220642,415.109253 850.147278,411.848419 
	C842.720886,389.288147 857.613953,366.963409 881.307312,366.238647 
	C899.900330,365.669922 914.617554,379.186096 916.165588,397.338257 
	C917.776978,416.233643 903.753479,432.962708 885.886475,434.255188 
	C880.505737,434.644440 875.161194,434.409515 870.158936,432.311310 
	C867.292603,431.109009 865.552551,432.029236 863.612488,434.002563 
	C855.433960,442.321442 847.021851,450.414703 838.976440,458.858429 
	C835.852356,462.137207 832.602600,463.468994 828.051575,463.442902 
	C797.053528,463.265076 766.054016,463.343811 735.054932,463.351959 
	C728.878906,463.353577 728.964600,463.449371 729.946350,469.583771 
	C731.364075,478.442902 733.311707,487.250488 733.360107,496.278717 
	C733.382751,500.494476 735.219238,502.010254 739.485107,501.999725 
	C782.483337,501.893280 825.482056,501.922211 868.480469,501.994232 
	C871.661865,501.999573 873.520142,501.102997 875.043518,498.019989 
	C882.116089,483.706055 897.172363,476.121887 911.829285,479.105591 
	C927.963440,482.390015 938.847534,494.746124 939.991394,511.076630 
	C941.004089,525.532349 931.107727,540.085144 916.898621,545.035034 
	C902.662964,549.994263 886.544128,544.737366 877.963257,532.275940 
	C876.739807,530.499268 875.589111,528.625244 874.735291,526.653198 
	C873.654785,524.157349 871.984924,523.273865 869.297241,523.277161 
	C825.632263,523.330505 781.967163,523.328308 738.302185,523.268250 
	C735.421936,523.264282 733.961609,524.265259 733.743103,527.184509 
	C732.959961,537.645752 731.529480,548.021423 729.500366,558.315430 
	C728.866394,561.531677 730.929016,561.897339 733.359192,561.896301 
	C741.692200,561.892578 750.025146,561.924377 758.358154,561.926636 
	C781.524231,561.932922 804.690979,562.027954 827.855652,561.846863 
	C832.216003,561.812744 835.438416,563.102783 838.445312,566.183105 
	C846.358398,574.289062 854.644165,582.035156 862.450928,590.239014 
	C865.353638,593.289307 867.679199,593.968689 871.856445,592.638428 
	C885.505249,588.291626 897.726624,591.561707 907.371643,602.067566 
	C916.582214,612.100098 918.955261,624.123596 914.118286,636.925232 
	C909.054626,650.326660 898.794312,657.740784 884.670532,659.122437 
	C861.130554,661.425293 842.345703,637.557129 849.836731,614.867676 
	C851.262695,610.548462 850.705872,607.948425 847.412476,604.927063 
	C841.032471,599.073914 835.019287,592.813904 828.979797,586.600342 
	C826.747803,584.304077 824.376099,583.188843 821.081604,583.198792 
	C789.916382,583.292847 758.750488,583.296143 727.585388,583.184326 
	C724.070923,583.171631 722.263123,584.203918 721.034851,587.679199 
	C714.165955,607.114319 704.702637,625.234680 692.462891,641.844604 
	C690.467773,644.552063 690.792053,646.239380 693.131592,648.564148 
	C715.592163,670.883057 737.955627,693.299927 760.290833,715.744446 
	C762.318481,717.781982 764.463135,718.721375 767.358032,718.682617 
	C776.689453,718.557373 786.026611,718.499695 795.355042,718.707825 
	C798.900330,718.786926 800.693359,717.364990 802.243469,714.298157 
	C809.053650,700.824219 822.706299,693.335327 836.571655,695.160339 
	C851.527649,697.128845 862.740723,707.178528 866.211548,721.725342 
	C870.012817,737.657104 861.140747,754.590454 845.755920,760.767517 
	C830.000732,767.093262 811.716309,761.321655 803.820923,746.525879 
	C800.823486,740.908691 797.323059,739.669189 791.656555,739.854980 
	C781.168335,740.198730 770.657715,739.804016 760.162048,740.006592 
	C756.189941,740.083313 753.304688,738.873535 750.481384,736.025818 
	C727.835510,713.184631 705.051575,690.480347 682.283020,667.760986 
	C680.534729,666.016479 678.989380,663.996948 676.357422,662.724182 
	C669.195007,669.482239 661.992859,676.277771 654.894348,682.975525 
	C655.523071,685.241516 657.122253,686.278992 658.389587,687.548340 
	C681.822083,711.017761 705.238770,734.503235 728.766357,757.877075 
	C731.340454,760.434387 732.451660,763.047974 732.399109,766.667297 
	C732.222595,778.831055 732.413696,790.999939 732.274719,803.164673 
	C732.239563,806.242310 733.197083,808.031799 736.093628,809.310059 
	C745.151917,813.307556 751.067444,820.261169 754.355347,829.984131 
M712.711304,502.673492 
	C712.074097,496.219727 711.753296,489.716309 710.750000,483.319977 
	C702.360718,429.834076 676.960327,386.039520 633.863037,353.401947 
	C590.685791,320.703918 541.635559,307.330658 487.665375,314.215454 
	C432.798187,321.214722 387.825470,346.648651 354.249542,390.431396 
	C318.493988,437.056427 304.948303,490.277863 315.764069,548.132446 
	C327.751251,612.253296 363.329468,660.351318 421.283447,690.704773 
	C465.361847,713.790771 512.178345,718.820618 560.516602,707.005493 
	C608.403442,695.300720 646.835327,668.947937 675.510986,629.087158 
	C702.356689,591.770142 714.662109,549.708496 712.711304,502.673492 
M892.877747,392.821747 
	C887.010010,386.501526 880.516785,385.586334 874.380066,390.214661 
	C869.204590,394.118042 867.760559,401.087097 870.967957,406.681793 
	C874.448059,412.752197 881.586365,415.063904 887.661133,412.087830 
	C894.727600,408.625977 896.896423,401.483734 892.877747,392.821747 
M612.369324,884.860840 
	C614.822266,892.038025 620.193665,896.036743 626.285400,895.220581 
	C632.302551,894.414490 637.181763,889.527771 637.749939,883.738525 
	C638.389526,877.221741 634.949951,871.920776 628.735840,869.892456 
	C619.758850,866.962158 610.596985,874.825012 612.369324,884.860840 
M869.334290,623.846069 
	C869.360229,625.004883 869.239990,626.189209 869.437073,627.318176 
	C870.373535,632.682983 874.840454,636.974426 880.135315,637.708740 
	C885.792053,638.493225 891.332153,635.687805 893.848816,630.764282 
	C896.338928,625.892761 895.413879,620.087219 891.607666,616.068604 
	C885.093384,609.190979 871.559814,611.182495 869.334290,623.846069 
M894.958130,505.652222 
	C892.084106,511.174377 892.102173,516.578674 896.302307,521.360413 
	C899.746094,525.281189 904.275269,526.615662 909.383179,525.112305 
	C914.783020,523.523132 918.436218,518.886230 918.730530,513.496155 
	C919.030640,507.999359 915.891602,502.914459 910.894287,500.802307 
	C905.280273,498.429565 900.279602,499.782440 894.958130,505.652222 
M291.046509,844.696716 
	C301.537933,847.785339 310.590027,840.926697 309.043762,831.060486 
	C308.098663,825.030090 303.634979,820.708069 297.743927,820.119263 
	C291.409760,819.486206 286.237427,822.738831 284.110138,828.692810 
	C281.943390,834.757263 284.070312,840.125183 291.046509,844.696716 
M616.024841,152.493347 
	C621.428833,156.591843 627.924805,157.037506 632.620789,153.631866 
	C637.150940,150.346527 639.102966,143.677216 636.981995,138.426071 
	C634.993103,133.501846 631.303711,130.690414 626.002869,130.283005 
	C620.466553,129.857513 616.137634,132.196350 613.670776,137.091370 
	C611.053894,142.283981 611.600403,147.407837 616.024841,152.493347 
M726.321350,852.186340 
	C732.536438,849.075134 735.222290,844.800842 734.671997,838.897400 
	C734.171631,833.529663 730.637939,829.293945 725.369995,827.747192 
	C720.303772,826.259705 714.870483,828.057068 711.564758,832.313965 
	C708.725952,835.969543 708.249512,842.474976 710.527527,846.476929 
	C713.453796,851.617798 718.117188,853.479126 726.321350,852.186340 
M388.123199,147.215302 
	C388.638184,148.256943 389.048676,149.367798 389.685486,150.328720 
	C393.200928,155.633560 400.350250,157.534103 406.059235,154.737961 
	C411.805389,151.923615 414.644287,145.241364 412.667786,139.182693 
	C410.573395,132.762634 403.651672,128.938416 397.168182,130.619308 
	C390.276031,132.406113 386.634216,138.601349 388.123199,147.215302 
M291.651947,180.267609 
	C289.674652,186.745712 291.324036,192.444733 296.131104,195.744034 
	C300.891632,199.011414 307.541260,198.712769 311.957550,195.033279 
	C316.265930,191.443619 317.826965,185.257828 315.472076,180.088379 
	C313.377838,175.491089 309.635101,172.808670 304.611694,172.361786 
	C298.828613,171.847305 294.752472,174.674072 291.651947,180.267609 
M719.030212,184.622589 
	C715.415710,189.440201 715.244019,194.494934 718.370850,199.525864 
	C721.110779,203.934311 726.663208,206.272614 731.273621,205.323288 
	C737.086304,204.126373 740.985718,200.192291 741.790283,194.712982 
	C742.654114,188.830032 740.279236,183.892593 735.324768,181.270996 
	C729.532043,178.205841 725.154846,178.972137 719.030212,184.622589 
M138.962936,412.621277 
	C139.610474,412.777069 140.251083,412.975403 140.906616,413.082031 
	C146.571167,414.003693 152.014893,411.282593 154.656754,406.226410 
	C157.060776,401.625427 156.075348,395.007782 152.444717,391.371277 
	C148.065399,386.984802 142.341019,386.192627 136.866776,389.165802 
	C132.483948,391.546204 130.450851,395.371155 130.330154,400.182678 
	C130.184769,405.978271 133.148849,409.915009 138.962936,412.621277 
M847.482544,292.905212 
	C838.067017,288.176605 828.436523,292.519409 827.366943,301.976166 
	C826.662231,308.207001 830.250122,313.782959 836.358582,315.950073 
	C841.580139,317.802551 848.162109,315.343689 851.109680,310.439514 
	C854.473938,304.841888 853.335510,298.406525 847.482544,292.905212 
M152.467758,633.938721 
	C156.661316,628.384766 157.106888,622.161804 153.652847,617.387451 
	C150.279831,612.725037 143.958817,610.878845 138.501938,613.010803 
	C133.517410,614.958130 130.759369,618.728455 130.375916,623.967163 
	C129.995682,629.161865 131.926178,633.450745 136.662186,636.058655 
	C142.078903,639.041382 147.189926,638.354309 152.467758,633.938721 
M413.365540,880.940186 
	C413.071167,879.812012 412.886566,878.640930 412.464478,877.562744 
	C409.768341,870.675232 401.663239,867.359009 395.123230,870.423706 
	C388.192566,873.671448 385.454163,881.895569 389.090454,888.541809 
	C391.747955,893.399048 397.403839,895.909363 403.168732,894.790405 
	C408.836731,893.690186 412.532288,888.993347 413.365540,880.940186 
M820.168030,730.239563 
	C821.854004,739.603027 829.348389,744.299316 837.526733,741.117065 
	C843.612976,738.748901 846.928528,732.510010 845.447327,726.212585 
	C843.966003,719.914673 838.285828,715.787781 831.772034,716.277039 
	C825.060303,716.781250 820.698181,721.703064 820.168030,730.239563 
M501.375458,912.053833 
	C506.298584,918.586060 512.012329,920.437378 518.164612,917.493713 
	C523.775574,914.809082 526.835510,908.286133 525.190552,902.516357 
	C523.132812,895.298828 515.890808,891.356201 508.688568,893.532593 
	C501.548523,895.690308 498.393158,903.070679 501.375458,912.053833 
M190.215851,709.929932 
	C184.924667,708.311707 180.013855,708.640381 175.964981,712.887390 
	C172.455307,716.568848 171.391281,720.909302 172.935791,725.770264 
	C174.677353,731.251465 179.732391,734.819946 185.399490,734.711182 
	C190.906662,734.605530 195.886551,730.970520 197.494171,725.882935 
	C199.452774,719.684631 197.292831,714.548584 190.215851,709.929932 
M116.441971,525.179565 
	C126.098991,527.793152 134.280045,518.157776 132.326248,510.232605 
	C130.828842,504.158844 125.252632,499.495697 119.445778,499.622040 
	C113.280197,499.756134 108.336929,504.109741 107.003464,510.579987 
	C105.713280,516.840210 108.734848,521.822876 116.441971,525.179565 
M198.738098,307.530884 
	C204.421890,303.568115 206.637314,298.533447 205.055893,293.173309 
	C203.363937,287.438477 198.800125,283.586151 193.232117,283.353271 
	C187.675491,283.120880 183.638916,285.719055 181.090790,290.519775 
	C178.634064,295.148285 179.377838,301.008148 182.961533,304.850067 
	C187.196075,309.389740 192.367905,310.032806 198.738098,307.530884 
M501.847595,112.588890 
	C499.066040,117.941589 499.074188,123.209587 502.977234,127.945267 
	C506.027924,131.646713 510.222565,133.219772 515.003662,132.284866 
	C520.866516,131.138412 525.047241,126.357323 525.609070,120.565674 
	C526.094604,115.560692 522.994507,110.259514 518.271912,108.019058 
	C512.552124,105.305527 507.269318,106.606613 501.847595,112.588890 
z"/>
<path fill="#000000" opacity="1.000000" stroke="none" 
	d="
M49.612583,933.627563 
	C51.825726,932.650330 52.582031,930.029358 55.684071,930.023315 
	C51.530941,936.923950 42.176430,940.617065 44.403889,950.490967 
	C40.157810,943.122253 44.645809,938.449829 49.612583,933.627563 
z"/>
<path fill="#000000" opacity="1.000000" stroke="none" 
	d="
M446.016266,466.098328 
	C450.499420,452.958466 454.950684,440.223938 459.138428,427.403320 
	C460.257416,423.977539 462.032257,422.603180 465.631653,422.744110 
	C471.456085,422.972046 477.315979,423.106842 483.122803,422.715607 
	C487.789886,422.401123 489.874786,424.175446 491.346893,428.561737 
	C502.471283,461.708649 513.842712,494.772675 525.136414,527.862793 
	C532.880798,550.553406 540.627197,573.243225 548.362244,595.937012 
	C548.994080,597.790833 549.958130,599.597595 549.422424,602.310120 
	C541.962769,602.310120 534.506165,602.358154 527.050842,602.286011 
	C524.167664,602.258118 523.870972,599.707336 523.191406,597.731812 
	C518.044495,582.770325 512.781555,567.845215 507.929962,552.787842 
	C506.362823,547.924133 504.128632,546.019653 498.743347,546.156006 
	C482.420746,546.569275 466.078369,546.471313 449.749664,546.205750 
	C445.024811,546.128967 442.689911,547.409424 441.235565,552.187866 
	C436.631744,567.314392 431.346985,582.232483 426.601196,597.317871 
	C425.389679,601.169067 423.519226,602.655151 419.481201,602.454163 
	C413.372986,602.150146 407.238464,602.374695 399.750397,602.374695 
	C415.352936,556.413330 430.619232,511.442352 446.016266,466.098328 
M477.994263,459.336182 
	C476.892548,455.190704 475.790863,451.045227 474.324768,445.528564 
	C467.783630,472.600342 458.380005,497.335449 450.104706,522.431763 
	C448.758667,526.513916 450.592499,527.034302 453.857788,527.024292 
	C467.516327,526.982361 481.175079,527.026428 494.833588,526.982361 
	C496.414490,526.977234 498.234558,527.377625 499.589996,525.205139 
	C492.529633,503.683472 485.381714,481.894958 477.994263,459.336182 
z"/>
<path fill="#000000" opacity="1.000000" stroke="none" 
	d="
M599.422546,450.000061 
	C599.475586,497.806396 599.474365,545.112854 599.620056,592.418884 
	C599.653381,603.221680 601.212158,602.392517 589.453857,602.392517 
	C575.622437,602.392456 575.606262,602.390015 575.604980,588.543335 
	C575.600037,535.569092 575.604614,482.594879 575.610901,429.620667 
	C575.611694,422.813049 575.626221,422.813049 582.565613,422.801666 
	C586.563660,422.795135 590.571777,422.961853 594.556763,422.730774 
	C598.164978,422.521515 599.634277,423.643890 599.488342,427.513672 
	C599.212341,434.832886 599.416748,442.170258 599.422546,450.000061 
z"/>
</svg>