<svg xmlns="http://www.w3.org/2000/svg" width="60" height="60" viewBox="0 0 60 60">
  <g id="data" transform="translate(0.051)">
    <path id="Path_2676" data-name="Path 2676" d="M5.578,13.112a14.618,14.618,0,0,1,.245-4.24A8.535,8.535,0,0,1,8.069,4.59a9.424,9.424,0,0,1,6.466-2.525,18.842,18.842,0,0,1,3.962.27l.348-1.98a20.837,20.837,0,0,0-4.395-.3,11.369,11.369,0,0,0-7.8,3.113A10.506,10.506,0,0,0,3.859,8.445l0,.012a16.6,16.6,0,0,0-.281,4.831Zm0,0" transform="translate(-3.203 -0.037)" fill="#e50707"/>
    <path id="Path_2677" data-name="Path 2677" d="M36.729,230.938c-.605-1.1-1.161-2.215-1.65-3.3l-1.832.827c.511,1.133,1.09,2.29,1.72,3.44Zm0,0" transform="translate(-29.946 -204.309)" fill="#e50707"/>
    <path id="Path_2678" data-name="Path 2678" d="M9.961,164.462a32.863,32.863,0,0,0,.918,3.187l1.9-.65a30.791,30.791,0,0,1-.862-2.99Zm0,0" transform="translate(-9.004 -147.204)" fill="#e50707"/>
    <path id="Path_2679" data-name="Path 2679" d="M129.951,367.749l-.262-.3-1.517,1.318q.133.154.268.308c.51.581,1.041,1.167,1.579,1.742q.361.386.73.769l1.449-1.394q-.36-.373-.711-.749C130.964,368.884,130.448,368.314,129.951,367.749Zm0,0" transform="translate(-115.084 -329.796)" fill="#e50707"/>
    <path id="Path_2680" data-name="Path 2680" d="M83.824,313.426l1.587-1.234q-.219-.282-.433-.565c-.612-.805-1.2-1.622-1.76-2.429l-1.655,1.141c.574.832,1.184,1.675,1.815,2.5Q83.6,313.136,83.824,313.426Zm0,0" transform="translate(-73.4 -277.513)" fill="#e50707"/>
    <path id="Path_2681" data-name="Path 2681" d="M170.773,412.8a73.176,73.176,0,0,0,5.986,5.238,61.343,61.343,0,0,0,9.036,5.9,44.747,44.747,0,0,0,5.759,2.563l-1.836.526.553,1.933,5.14-1.471a1,1,0,0,0,.69-1.243l-1.339-4.681-1.933.553.852,2.974a40.7,40.7,0,0,1-6.942-2.928A59.307,59.307,0,0,1,178,416.462a71.273,71.273,0,0,1-5.824-5.095Zm0,0" transform="translate(-153.121 -368.967)" fill="#e50707"/>
    <path id="Path_2682" data-name="Path 2682" d="M447.732,355.663a33.989,33.989,0,0,0-2.521-8.2l-1.841.808a32,32,0,0,1,2.376,7.707c.719,4.495-.071,8.041-2.284,10.255a8.511,8.511,0,0,1-4.238,2.235,14.919,14.919,0,0,1-4.676.222c-.423-.04-.859-.1-1.3-.166l-.314,1.985c.477.076.955.136,1.419.181q.981.094,1.911.094a15.512,15.512,0,0,0,3.4-.356,10.488,10.488,0,0,0,5.218-2.775c2.689-2.689,3.673-6.835,2.849-11.993Zm0,0" transform="translate(-388.412 -311.496)" fill="#e50707"/>
    <path id="Path_2683" data-name="Path 2683" d="M515.926,301.215l-1.746,1c.484.849.94,1.7,1.357,2.542l1.8-.894C516.9,302.986,516.429,302.1,515.926,301.215Zm0,0" transform="translate(-461.478 -270.354)" fill="#e50707"/>
    <path id="Path_2684" data-name="Path 2684" d="M470.9,231.789l-1.6,1.221c.749.98,1.481,1.992,2.174,3.01l1.661-1.132C472.426,233.84,471.673,232.8,470.9,231.789Zm0,0" transform="translate(-421.12 -208.036)" fill="#e50707"/>
    <path id="Path_2685" data-name="Path 2685" d="M422.809,174.066l-1.453,1.388c.851.891,1.688,1.819,2.49,2.755l1.528-1.306C424.548,175.938,423.685,174.984,422.809,174.066Zm0,0" transform="translate(-378.225 -156.229)" fill="#e50707"/>
    <path id="Path_2686" data-name="Path 2686" d="M179.009,7.072l1.966-.42-.649-3.036a40.326,40.326,0,0,1,5.37,2.357,58.768,58.768,0,0,1,8.632,5.573c1.277.986,2.564,2.055,3.824,3.178.7.624,1.4,1.277,2.091,1.942.3.288.6.588.907.891l1.421-1.421c-.311-.311-.624-.619-.932-.916-.707-.683-1.43-1.355-2.148-2-1.3-1.155-2.619-2.255-3.931-3.267q-1.916-1.49-3.958-2.825c.771-.435,1.545-.846,2.3-1.223l-.894-1.8c-.9.447-1.823.94-2.736,1.464l.638,1.114q-2.091-1.332-4.278-2.49a42.559,42.559,0,0,0-4-1.852l1.771-.378L183.992,0l-5.227,1.117a1,1,0,0,0-.773,1.193Zm0,0" transform="translate(-159.583)" fill="#e50707"/>
    <path id="Path_2687" data-name="Path 2687" d="M.305,430.484a20.81,20.81,0,0,0-.3,4.395,11.367,11.367,0,0,0,3.112,7.8A10.506,10.506,0,0,0,8.4,445.47l.013,0a16.582,16.582,0,0,0,3.369.346q.731,0,1.461-.064l-.177-2a14.563,14.563,0,0,1-4.24-.246,8.52,8.52,0,0,1-4.282-2.245,9.43,9.43,0,0,1-2.525-6.467,18.8,18.8,0,0,1,.27-3.963Zm0,0" transform="translate(-0.039 -386.16)" fill="#e50707"/>
    <path id="Path_2688" data-name="Path 2688" d="M228.413,522c1.133-.511,2.291-1.09,3.44-1.72l-.966-1.762c-1.1.605-2.215,1.161-3.3,1.65Zm0,0" transform="translate(-204.309 -465.336)" fill="#e50707"/>
    <path id="Path_2689" data-name="Path 2689" d="M164.411,551.207a32.79,32.79,0,0,0,3.187-.918l-.65-1.9a30.839,30.839,0,0,1-2.99.862Zm0,0" transform="translate(-147.204 -492.197)" fill="#e50707"/>
    <path id="Path_2690" data-name="Path 2690" d="M367.4,420.7l1.317,1.518.309-.269c.581-.511,1.168-1.043,1.742-1.579q.386-.361.77-.731l-1.394-1.448q-.373.36-.749.711c-.559.522-1.129,1.039-1.695,1.536Q367.552,420.57,367.4,420.7Zm0,0" transform="translate(-329.798 -375.339)" fill="#e50707"/>
    <path id="Path_2691" data-name="Path 2691" d="M309.152,468.749l1.141,1.655c.832-.573,1.675-1.184,2.5-1.815q.291-.221.582-.447l-1.234-1.587q-.281.219-.564.434C310.776,467.6,309.959,468.193,309.152,468.749Zm0,0" transform="translate(-277.517 -418.601)" fill="#e50707"/>
    <path id="Path_2692" data-name="Path 2692" d="M355.932,5.869c4.495-.719,8.041.071,10.255,2.285a8.516,8.516,0,0,1,2.235,4.238,14.914,14.914,0,0,1,.222,4.677c-.04.422-.1.858-.165,1.3l1.985.314c.076-.479.136-.956.181-1.419a16.917,16.917,0,0,0-.262-5.31,10.487,10.487,0,0,0-2.774-5.218c-2.689-2.689-6.837-3.674-11.993-2.848a34.007,34.007,0,0,0-8.2,2.52l.808,1.841a31.993,31.993,0,0,1,7.707-2.376Zm0,0" transform="translate(-311.499 -3.238)" fill="#e50707"/>
    <path id="Path_2693" data-name="Path 2693" d="M178.155,126.624l-1.307-1.527c-.964.825-1.918,1.688-2.836,2.563l1.388,1.454C176.292,128.263,177.219,127.425,178.155,126.624Zm0,0" transform="translate(-156.226 -112.278)" fill="#e50707"/>
    <path id="Path_2694" data-name="Path 2694" d="M235.974,80.614l-1.133-1.661c-1.048.715-2.091,1.468-3.1,2.239l1.221,1.6C233.942,82.04,234.955,81.308,235.974,80.614Zm0,0" transform="translate(-208.039 -71.007)" fill="#e50707"/>
    <path id="Path_2695" data-name="Path 2695" d="M427.443,164.275a1,1,0,0,0-1.243-.69l-4.682,1.34.553,1.933,2.974-.851a40.744,40.744,0,0,1-2.929,6.942,59.307,59.307,0,0,1-5.709,8.737,71.269,71.269,0,0,1-5.1,5.824l1.438,1.4a73.252,73.252,0,0,0,5.238-5.986,61.32,61.32,0,0,0,5.9-9.036,44.8,44.8,0,0,0,2.563-5.759l.526,1.836,1.933-.553Zm0,0" transform="translate(-368.964 -146.598)" fill="#e50707"/>
    <path id="Path_2696" data-name="Path 2696" d="M2.049,188.551a.981.981,0,0,0,.211-.023l4.762-1.017-.42-1.966-3.036.649a40.252,40.252,0,0,1,2.357-5.37,58.716,58.716,0,0,1,5.573-8.633c.985-1.277,2.055-2.564,3.178-3.824.624-.7,1.277-1.4,1.942-2.091.291-.3.591-.607.891-.907l-1.421-1.421c-.308.308-.616.621-.916.931-.684.708-1.355,1.43-2,2.149-1.156,1.3-2.255,2.619-3.267,3.931a60.752,60.752,0,0,0-5.761,8.924,42.126,42.126,0,0,0-1.852,4l-.379-1.772-1.966.42,1.117,5.227a1.006,1.006,0,0,0,.983.8Zm0,0" transform="translate(0 -146.969)" fill="#e50707"/>
    <path id="Path_2697" data-name="Path 2697" d="M206.941,180v15.944c0,.851.477,2.049,2.9,2.924a17.592,17.592,0,0,0,5.791.879h.078a20.687,20.687,0,0,0,3.747-.342c3.133-.6,4.95-1.863,4.95-3.461V180c0-.851-.532-2.048-2.952-2.924a17.775,17.775,0,0,0-5.822-.879,17.545,17.545,0,0,0-5.786.879C207.424,177.954,206.941,179.152,206.941,180Zm12.137,17.43a18.409,18.409,0,0,1-3.448.308,15.526,15.526,0,0,1-5.1-.759c-1.324-.479-1.577-.96-1.577-1.034v-2.805a6.644,6.644,0,0,0,.887.39,17.59,17.59,0,0,0,5.8.879,17.786,17.786,0,0,0,5.826-.879c.344-.124.557-.255.934-.391v2.806C222.394,196.136,221.58,196.953,219.078,197.433Zm3.316-6.825c0,.075-.3.555-1.626,1.035a15.739,15.739,0,0,1-5.139.759,15.5,15.5,0,0,1-5.1-.759c-1.324-.479-1.577-.96-1.577-1.035v-2.768a6.6,6.6,0,0,0,.887.39,17.59,17.59,0,0,0,5.8.879,17.786,17.786,0,0,0,5.826-.879c.344-.124.557-.255.934-.39Zm-1.626-4.268a15.739,15.739,0,0,1-5.139.759,15.5,15.5,0,0,1-5.1-.759c-1.324-.479-1.577-.959-1.577-1.034v-2.769a6.72,6.72,0,0,0,.887.39,17.593,17.593,0,0,0,5.8.879,17.8,17.8,0,0,0,5.826-.879c.344-.125.557-.256.934-.39v2.769C222.394,185.38,222.092,185.861,220.768,186.339Zm-10.277-7.371a17.677,17.677,0,0,1,10.252,0c1.323.479,1.6.959,1.6,1.034s-.279.554-1.6,1.034a17.677,17.677,0,0,1-10.252,0c-1.324-.479-1.6-.959-1.6-1.034s.279-.555,1.6-1.034Zm0,0" transform="translate(-185.659 -157.966)" fill="#e50707"/>
  </g>
</svg>
